UNKNOWN
version=1
nRows=126
nColumns=4
inDegrees=no
endheader
time	time	knee_angle_r_moment	knee_angle_l_moment
      0.00000000	      0.95000000	     -2.46556082	      1.96793032
      1.00000000	      0.96000000	     -2.21542448	     -1.70602876
      2.00000000	      0.97000000	     -1.98057501	     -5.23748094
      3.00000000	      0.98000000	     -1.75997669	     -8.35048885
      4.00000000	      0.99000000	     -1.54781763	    -10.82010927
      5.00000000	      1.00000000	     -1.33411224	    -12.49850403
      6.00000000	      1.01000000	     -1.10758302	    -13.31823621
      7.00000000	      1.02000000	     -0.85806992	    -13.32027738
      8.00000000	      1.03000000	     -0.58069259	    -12.61920265
      9.00000000	      1.04000000	     -0.27847945	    -11.37877288
     10.00000000	      1.05000000	      0.03622335	     -9.78696861
     11.00000000	      1.06000000	      0.34236241	     -8.03276150
     12.00000000	      1.07000000	      0.61294747	     -6.28531596
     13.00000000	      1.08000000	      0.81974978	     -4.67709556
     14.00000000	      1.09000000	      0.93934856	     -3.29371586
     15.00000000	      1.10000000	      0.98429325	     -2.17658817
     16.00000000	      1.11000000	      1.02479653	     -1.31878981
     17.00000000	      1.12000000	      1.02268880	     -0.69014456
     18.00000000	      1.13000000	      0.99955024	     -0.25106749
     19.00000000	      1.14000000	      0.97902181	      0.03738211
     20.00000000	      1.15000000	      0.97758123	      0.20943539
     21.00000000	      1.16000000	      1.00618042	      0.29514901
     22.00000000	      1.17000000	      1.06379961	      0.32215576
     23.00000000	      1.18000000	      1.13534002	      0.31598411
     24.00000000	      1.19000000	      1.16064845	      0.29828673
     25.00000000	      1.20000000	      1.17798804	      0.28402703
     26.00000000	      1.21000000	      1.16708615	      0.27950952
     27.00000000	      1.22000000	      1.11196416	      0.28281440
     28.00000000	      1.23000000	      1.00463757	      0.28673481
     29.00000000	      1.24000000	      0.84612520	      0.28281667
     30.00000000	      1.25000000	      0.64472042	      0.26347098
     31.00000000	      1.26000000	      0.41256031	      0.22734074
     32.00000000	      1.27000000	      0.16207521	      0.17429412
     33.00000000	      1.28000000	     -0.09633995	      0.10480109
     34.00000000	      1.29000000	     -0.35487829	      0.01904044
     35.00000000	      1.30000000	     -0.60742802	     -0.08342190
     36.00000000	      1.31000000	     -0.84817870	     -0.20267492
     37.00000000	      1.32000000	     -1.07076138	     -0.33682724
     38.00000000	      1.33000000	     -1.26858576	     -0.48086153
     39.00000000	      1.34000000	     -1.43625601	     -0.62686333
     40.00000000	      1.35000000	     -1.57155356	     -0.76570954
     41.00000000	      1.36000000	     -1.67720631	     -0.88940651
     42.00000000	      1.37000000	     -1.76188847	     -0.99298211
     43.00000000	      1.38000000	     -1.84011650	     -1.07527976
     44.00000000	      1.39000000	     -1.93106147	     -1.13855919
     45.00000000	      1.40000000	     -2.05659261	     -1.18716243
     46.00000000	      1.41000000	     -2.23910111	     -1.22574572
     47.00000000	      1.42000000	     -2.49977116	     -1.25771541
     48.00000000	      1.43000000	     -2.85776699	     -1.28444949
     49.00000000	      1.44000000	     -3.33234606	     -1.30558223
     50.00000000	      1.45000000	     -4.02996849	     -1.32010976
     51.00000000	      1.46000000	     -4.88458540	     -1.32769053
     52.00000000	      1.47000000	     -5.87533608	     -1.32957709
     53.00000000	      1.48000000	     -6.96364188	     -1.32887416
     54.00000000	      1.49000000	     -8.08080476	     -1.33001293
     55.00000000	      1.50000000	     -9.15043921	     -1.33753657
     56.00000000	      1.51000000	     -9.98690001	     -1.35446384
     57.00000000	      1.52000000	    -10.64994088	     -1.38056895
     58.00000000	      1.53000000	    -11.19686886	     -1.41099296
     59.00000000	      1.54000000	    -11.54032753	     -1.43566067
     60.00000000	      1.55000000	    -11.59999143	     -1.43986683
     61.00000000	      1.56000000	    -11.32534671	     -1.40612752
     62.00000000	      1.57000000	    -10.71042482	     -1.31750075
     63.00000000	      1.58000000	     -9.79633082	     -1.15995668
     64.00000000	      1.59000000	     -8.66185125	     -0.92569250
     65.00000000	      1.60000000	     -7.40604744	     -0.61493187
     66.00000000	      1.61000000	     -6.12880003	     -0.23641869
     67.00000000	      1.62000000	     -4.91504211	      0.19310516
     68.00000000	      1.63000000	     -3.82597809	      0.65042990
     69.00000000	      1.64000000	     -2.89754396	      1.10826742
     70.00000000	      1.65000000	     -2.14420730	      1.53834711
     71.00000000	      1.66000000	     -1.56524844	      1.91518481
     72.00000000	      1.67000000	     -1.15013002	      2.22034285
     73.00000000	      1.68000000	     -0.87456663	      2.46130933
     74.00000000	      1.69000000	     -0.74155234	      2.68973480
     75.00000000	      1.70000000	     -0.72148217	      2.87164155
     76.00000000	      1.71000000	     -0.77975713	      3.01619446
     77.00000000	      1.72000000	     -0.88053361	      3.12994960
     78.00000000	      1.73000000	     -0.99079977	      3.21334379
     79.00000000	      1.74000000	     -1.08419510	      3.25797598
     80.00000000	      1.75000000	     -1.14378003	      3.25280025
     81.00000000	      1.76000000	     -1.16293777	      3.18353247
     82.00000000	      1.77000000	     -1.14402225	      3.03838670
     83.00000000	      1.78000000	     -1.09528789	      2.81211555
     84.00000000	      1.79000000	     -1.02312963	      2.50308590
     85.00000000	      1.80000000	     -0.93064823	      2.13224047
     86.00000000	      1.81000000	     -0.83211009	      1.71884713
     87.00000000	      1.82000000	     -0.73377996	      1.28284465
     88.00000000	      1.83000000	     -0.63973561	      0.84554080
     89.00000000	      1.84000000	     -0.55323209	      0.42720352
     90.00000000	      1.85000000	     -0.47791604	      0.04498084
     91.00000000	      1.86000000	     -0.41825868	     -0.28856257
     92.00000000	      1.87000000	     -0.37917542	     -0.56596013
     93.00000000	      1.88000000	     -0.36511350	     -0.78444063
     94.00000000	      1.89000000	     -0.37893461	     -0.94503501
     95.00000000	      1.90000000	     -0.42186976	     -1.05171441
     96.00000000	      1.91000000	     -0.49028672	     -1.11091750
     97.00000000	      1.92000000	     -0.57725883	     -1.13160126
     98.00000000	      1.93000000	     -0.67553421	     -1.12946939
     99.00000000	      1.94000000	     -0.77690479	     -1.13285341
    100.00000000	      1.95000000	     -0.87383841	     -1.15869154
    101.00000000	      1.96000000	     -0.96090380	     -1.23216718
    102.00000000	      1.97000000	     -1.03533846	     -1.37948261
    103.00000000	      1.98000000	     -1.09643359	     -1.62695229
    104.00000000	      1.99000000	     -1.14437663	     -1.99831143
    105.00000000	      2.00000000	     -1.17962193	     -2.51293923
    106.00000000	      2.01000000	     -1.20294908	     -3.18962814
    107.00000000	      2.02000000	     -1.21543431	     -4.00493313
    108.00000000	      2.03000000	     -1.21787670	     -4.91366369
    109.00000000	      2.04000000	     -1.21011197	     -6.06562013
    110.00000000	      2.05000000	     -1.19083759	     -7.43087697
    111.00000000	      2.06000000	     -1.15809002	     -8.92789982
    112.00000000	      2.07000000	     -1.11023132	    -10.43027354
    113.00000000	      2.08000000	     -1.04735336	    -11.79575976
    114.00000000	      2.09000000	     -0.97299189	    -12.84972481
    115.00000000	      2.10000000	     -0.89589933	    -13.47900351
    116.00000000	      2.11000000	     -0.83155267	    -13.61701046
    117.00000000	      2.12000000	     -0.80343721	    -13.24243776
    118.00000000	      2.13000000	     -0.84690078	    -12.37494721
    119.00000000	      2.14000000	     -0.99460912	    -11.06449745
    120.00000000	      2.15000000	     -1.28054436	     -9.37782512
    121.00000000	      2.16000000	     -1.72971190	     -7.38580055
    122.00000000	      2.17000000	     -2.34995362	     -5.15477864
    123.00000000	      2.18000000	     -3.12475575	     -2.74386211
    124.00000000	      2.19000000	     -4.00952177	     -0.20818582
    125.00000000	      2.20000000	     -4.93461269	      2.39395060
